# xmcd
#
# Track frame offsets: 
#        175
#        10120
#        19152
#        30150
#        40242
#        50172
#        60670
#        68707
#        80220
#        93750
#        102450
#        115805
#        127785
#        140967
#        149042
#        156412
#        166905
#        178755
#        189820
#        199230
#        210852
#        220505
#        230020
#        241040
#        255177
#        265910
#        279440
#        289080
#        296632
#        309582
#
# Disc length: 4275 seconds
#
# Revision: 0
# Processed by: cddbd v1.5.1PL0 Copyright (c) Steve Scherf et al.
# Submitted via: ExactAudioCopy v0.95a4
#
DISCID=af10b11e
DTITLE=Various Artist - Dixie Boppin' Country Billies (3333)
DYEAR=1900
DGENRE=Country
TTITLE0=Danny Brockman - Big Big Man
TTITLE1=Gene Mills - Yodlin' Chime Bells
TTITLE2=Bob Weller and The Night Riders - Devil's Heart
TTITLE3=Elmer Bryant - Gertie's Garter Broke
TTITLE4=Missouri Walker and Ozark Ramblers - Lonesome Guitar
TTITLE5=Dallas Stamper and Rhythmette Boys - I'm Going To Heaven When I 
TTITLE5=Die
TTITLE6=The Kind Brothers and Virginia Mountaineers - A True Loving Woma
TTITLE6=n
TTITLE7=Horace Goodwin and Etowah Valley Boys - The Country Jitterbug (I
TTITLE7=nstr.)
TTITLE8=Hoyt and Jo Webb - Don't Wake Me
TTITLE9=Pete Peters - Red Wing
TTITLE10=Les Waldroop and Wade and Mickey - Got It Made (In The Shade)
TTITLE11=Bill and Paul and Bluegrass Travelers - Doin' My Time
TTITLE12=Bill and Paul and Bluegrass Travelers - Blue Grass Hop (Instr.)
TTITLE13=Ronnie Miller - Dang You Pride
TTITLE14=Little Chuck Daniels and The Big Boys - I've Got My Brand On Yo
TTITLE14=u
TTITLE15=Doug Bragg - Red Rover
TTITLE16=Bick Brothers - Just Like It
TTITLE17=Beck Brothers - Big Rocker
TTITLE18=Unknown Demo - Waitin' For A Train
TTITLE19=Art Ontario - It Must Be Me
TTITLE20=Art Ontario - Last Goodbye
TTITLE21=Dee Johnson - Just Look, Don't Touch
TTITLE22=Ken Hammock and Tennessee Valley Gang - Blue Guitar Jump (Instr
TTITLE22=)
TTITLE23=Tom Crook and Rock And Roll Four - Weekend Boogie
TTITLE24=Doug Bragg - Lovin' On My Mind
TTITLE25=Eddie Skelton - Feelin' Blue
TTITLE26=Unknown Demo - Blue Suede Shoes
TTITLE27=Jack Hanna - Brady And Dunky
TTITLE28=Jack Thomas and The Tomcats - Meanest Blues
TTITLE29=Jack Thomas and The Tomcats - Poor Boy Blues
EXTD=
EXTT0=
EXTT1=
EXTT2=
EXTT3=
EXTT4=
EXTT5=
EXTT6=
EXTT7=
EXTT8=
EXTT9=
EXTT10=
EXTT11=
EXTT12=
EXTT13=
EXTT14=
EXTT15=
EXTT16=
EXTT17=
EXTT18=
EXTT19=
EXTT20=
EXTT21=
EXTT22=
EXTT23=
EXTT24=
EXTT25=
EXTT26=
EXTT27=
EXTT28=
EXTT29=
PLAYORDER=
